<?xml version="1.0" encoding="utf-8"?>
<!-- Generator: Adobe Illustrator 22.1.0, SVG Export Plug-In . SVG Version: 6.00 Build 0)  -->
<svg version="1.1" id="Layer_1" xmlns="http://www.w3.org/2000/svg" xmlns:xlink="http://www.w3.org/1999/xlink" x="0px" y="0px"
	 viewBox="0 0 329.4 317" style="enable-background:new 0 0 329.4 317;" xml:space="preserve">
<style type="text/css">
	.st0{display:none;}
	.st1{display:inline;}
	.st2{fill:none;stroke:#FFDE00;stroke-width:7;stroke-miterlimit:10;}
</style>
<title>amit</title>
<g class="st0">
	<g class="st1">
		<rect x="214.1" y="76" width="8.5" height="8.5"/>
		<rect x="192.7" y="76" width="8.5" height="8.5"/>
		<rect x="171.4" y="76" width="8.5" height="8.5"/>
		<polygon points="115.1,140.7 144.5,153.9 144.5,148.3 121,138.5 144.5,128.8 144.5,123.2 115.1,135.5 		"/>
		<polygon points="160.7,114.7 147.9,160.7 152.2,160.7 165,114.7 		"/>
		<polygon points="197.9,135.1 168.4,122.8 168.4,128.3 191.9,138.1 168.4,147.9 168.4,153.4 197.9,140.7 		"/>
		<path d="M214.1,184.1c-12.8,0-23.5,10.6-23.5,23.4s10.7,23.4,23.5,23.4s23.5-10.6,23.5-23.4S226.9,184.1,214.1,184.1z
			 M214.1,222.4c-8.1,0-14.9-6.8-14.9-14.9s6.8-14.9,14.9-14.9c8.1,0,14.9,6.8,14.9,14.9C229,215.6,222.2,222.4,214.1,222.4z"/>
		<path d="M259.2,195.6h-8c-0.7-2-1.4-3.8-2.3-5.6l5.7-5.6c2.2-2.2,2.2-5.7,0-7.9l-6.2-6.2V58.5H64.7v178.8c0,2.5,1.7,4.3,4.3,4.3
			h106.6l6.8,6.8c2.2,2.2,5.7,2.2,7.9,0l5.7-5.6c1.8,0.9,3.7,1.7,5.7,2.3v8c0,3.1,2.5,5.5,5.5,5.5h13.3c3.1,0,5.5-2.5,5.5-5.5v-8
			c2-0.7,3.9-1.4,5.7-2.3l5.7,5.6c2.2,2.2,5.7,2.2,7.9,0l9.4-9.3c2.2-2.2,2.2-5.7,0-7.9l-5.7-5.6c0.9-1.8,1.7-3.7,2.3-5.6h8
			c3.1,0,5.5-2.5,5.5-5.5v-13.2C264.7,198.1,262.2,195.6,259.2,195.6L259.2,195.6z M73.2,67h166.5v26.8H73.2V67z M173.1,231.2
			c-0.5,0.5-0.9,1.2-1.2,1.8H72.8V102.4h166.5v63.5c-0.7,0.3-1.4,0.7-2,1.3l-5.7,5.6c-1.8-0.9-3.7-1.7-5.7-2.3v-8
			c0-3.1-2.5-5.5-5.5-5.5h-13.3c-3.1,0-5.5,2.5-5.5,5.5v8c-2,0.7-3.9,1.4-5.7,2.3l-5.7-5.6c-2.2-2.2-5.7-2.2-7.9,0l-9.4,9.3
			c-2.2,2.2-2.2,5.7,0,7.9l5.7,5.6c-0.9,1.8-1.7,3.7-2.3,5.6h-8c-3.1,0-5.5,2.5-5.5,5.5v13.2c0,3.1,2.5,5.5,5.5,5.5h8
			c0.7,2,1.4,3.8,2.3,5.6L173.1,231.2L173.1,231.2z M256.1,211.3H246c-0.7,6.3-3.2,12-6.9,16.7l7.1,7.1l-5,5l-7.1-7.2
			c-4.7,3.8-10.4,6.2-16.7,6.9V250h-7.1v-10.1c-6.3-0.7-12-3.2-16.7-6.9l-7.1,7.1l-5-5l7.1-7.1c-3.8-4.7-6.2-10.4-6.9-16.7h-10.1
			v-7.1h10.1c0.7-6.3,3.2-12,6.9-16.7l-7.1-7.1l5-5l7.1,7.1c4.7-3.8,10.4-6.2,16.7-6.9v-10.1h7.1v10.1c6.3,0.7,12,3.2,16.7,6.9
			l7.1-7.1l5,5l-7.1,7.1c3.8,4.7,6.2,10.4,6.9,16.7h10.1V211.3z"/>
	</g>
</g>
<g>
	<path class="st2" d="M72.7,259.5c0-20.8,0-41.1,0-61.5c-10.8-2.5-21.5-4.9-32.6-7.5c0.7-1.3,1.2-2.4,1.8-3.5
		c8.7-15.5,17.5-31.1,26.1-46.7c0.8-1.5,1.2-3.6,1-5.3c-1.4-10.6-1.9-21.1,0-31.8c69.7,0,139.3,0,209.3,0c0.3,2.3,0.7,4.6,0.8,6.8
		c0.3,15.7,1.3,31.5-1.4,47.1c-6,33.6-23.1,60.3-50.9,80.1c-2,1.4-2.8,2.8-2.8,5.3c0.1,19.6,0.1,39.2,0.1,58.9c0,0.9-0.1,1.9-0.1,3
		c-33.5,0-66.9,0-100.6,0c0-14.9,0-29.8,0-45C106.3,259.5,89.7,259.5,72.7,259.5z M83.1,118.6c-0.2,14.3,12.1,25.6,26.7,24.8
		c12.8-0.7,24.4-13,23-24.8c-3.1,0-6.2,0-9.3,0c-2,9.8-7.3,14.9-15.5,14.9c-8.1,0-13.5-5.1-15.5-14.9
		C89.4,118.6,86.3,118.6,83.1,118.6z"/>
	<path class="st2" d="M93,93.1c-3.5,0-6.6,0-10.2,0c0-3.3-0.2-6.7,0.1-10c0.2-2.4-0.7-3.7-2.8-4.9C57.8,64.8,56.6,33.9,77.5,19
		c15.9-11.3,38.1-7.5,49.3,8.5c11.2,16,7.4,38.4-8.8,49.1c-4,2.6-5.5,5.3-5,9.8c0.3,2.1,0,4.2,0,6.5c-3.3,0-6.5,0-9.9,0
		c-0.1-0.6-0.3-1.3-0.3-2c0-8.8,0-17.6,0-26.4c0-1.7,0.4-2.8,2.1-3.7c6.5-3.5,9.2-10.2,7.4-17c-1.7-6.4-7.7-11-14.4-11.1
		c-6.8,0-12.9,4.7-14.6,11.3c-1.7,6.7,1.2,13.2,7.3,16.9c0.9,0.5,2.1,1.7,2.1,2.5C93,73.2,93,83,93,93.1z"/>
	<path class="st2" d="M276.7,34.5c4,2,7.6,3.8,11.3,5.7c-3.4,8.2-6.7,16.1-10,23.9c-3.7,8.8-7.4,17.5-10.9,26.4
		c-0.9,2.2-2.1,3-4.4,2.8c-3.5-0.2-7.1,0-11.2,0C260,73.4,268.3,54.1,276.7,34.5z"/>
	<path class="st2" d="M156.2,38c1.9-6.5,3.6-12.4,5.4-18.7c6.7,2.8,13.1,5.6,20,8.5c-1.6,1-2.9,1.8-4.4,2.7
		C182,41.2,186.9,51.8,192,63c-6.4,0-12.3,0.1-18.1-0.1c-0.7,0-1.5-1.3-1.9-2.1c-3.7-8-7.4-16.1-11.2-24.4
		C159.3,36.9,158,37.4,156.2,38z"/>
	<path class="st2" d="M143.5,93.1c-7.1,0-13.6,0-20.2,0c-0.5-4.2-0.6-7.6,3.5-10.7c7.8-5.8,12.3-14,15-23.4c0.4-1.5,1.8-3,3.1-3.8
		c3.5-2.1,7.2-3.7,11.2-5.7c2,4.5,4,8.7,6.1,13.4C144.8,66.1,142,78.3,143.5,93.1z"/>
	<path class="st2" d="M206,93.2c-6.4,0-12.2,0-18.1,0c-0.6,0-1.4-0.6-1.7-1.1c-2.9-6.1-5.7-12.3-8.8-19.2c5.1,0,9.6,0.3,14.1-0.1
		c3.8-0.3,5.8,0.9,7.2,4.6C200.8,82.6,203.4,87.6,206,93.2z"/>
	<path class="st2" d="M153.3,93c0-3.9-0.3-7.7,0.1-11.4c0.6-5.5,6.2-9.5,11.9-8.7c0.6,0.1,1.5,0.5,1.8,1c2.9,6.2,5.7,12.5,8.7,19.1
		C168.1,93,160.9,93,153.3,93z"/>
	<path class="st2" d="M233.8,12.6c0,3.4,0,6.6,0,9.9c-3.4,0-6.5,0-9.9,0c0-3.4,0-6.5,0-9.9C227.3,12.6,230.5,12.6,233.8,12.6z"/>
	<path class="st2" d="M97.8,52.9c-2.9,0-5.1-2.4-5-5.2c0.1-2.7,2.3-4.9,5-5c2.8,0,5.2,2.4,5.2,5.1C103,50.7,100.7,53,97.8,52.9z"/>
	<path class="st2" d="M289.3,22.7c0,2.6,0,4.5,0,7c-1.9-0.9-3.5-1.7-5.7-2.8C285.7,25.4,287.3,24.1,289.3,22.7z"/>
</g>
</svg>
