<?xml version="1.0" encoding="utf-8"?>
<!-- Generator: Adobe Illustrator 22.1.0, SVG Export Plug-In . SVG Version: 6.00 Build 0)  -->
<svg version="1.1" id="Layer_1" xmlns="http://www.w3.org/2000/svg" xmlns:xlink="http://www.w3.org/1999/xlink" x="0px" y="0px"
	 viewBox="0 0 329.4 317" style="enable-background:new 0 0 329.4 317;" xml:space="preserve">
<style type="text/css">
	.st0{display:none;}
	.st1{display:inline;}
	.st2{fill:none;stroke:#FFDE00;stroke-width:7;stroke-miterlimit:10;}
</style>
<title>amit</title>
<g class="st0">
	<g class="st1">
		<rect x="214.1" y="76" width="8.5" height="8.5"/>
		<rect x="192.7" y="76" width="8.5" height="8.5"/>
		<rect x="171.4" y="76" width="8.5" height="8.5"/>
		<polygon points="115.1,140.7 144.5,153.9 144.5,148.3 121,138.5 144.5,128.8 144.5,123.2 115.1,135.5 		"/>
		<polygon points="160.7,114.7 147.9,160.7 152.2,160.7 165,114.7 		"/>
		<polygon points="197.9,135.1 168.4,122.8 168.4,128.3 191.9,138.1 168.4,147.9 168.4,153.4 197.9,140.7 		"/>
		<path d="M214.1,184.1c-12.8,0-23.5,10.6-23.5,23.4s10.7,23.4,23.5,23.4s23.5-10.6,23.5-23.4S226.9,184.1,214.1,184.1z
			 M214.1,222.4c-8.1,0-14.9-6.8-14.9-14.9s6.8-14.9,14.9-14.9c8.1,0,14.9,6.8,14.9,14.9C229,215.6,222.2,222.4,214.1,222.4z"/>
		<path d="M259.2,195.6h-8c-0.7-2-1.4-3.8-2.3-5.6l5.7-5.6c2.2-2.2,2.2-5.7,0-7.9l-6.2-6.2V58.5H64.7v178.8c0,2.5,1.7,4.3,4.3,4.3
			h106.6l6.8,6.8c2.2,2.2,5.7,2.2,7.9,0l5.7-5.6c1.8,0.9,3.7,1.7,5.7,2.3v8c0,3.1,2.5,5.5,5.5,5.5h13.3c3.1,0,5.5-2.5,5.5-5.5v-8
			c2-0.7,3.9-1.4,5.7-2.3l5.7,5.6c2.2,2.2,5.7,2.2,7.9,0l9.4-9.3c2.2-2.2,2.2-5.7,0-7.9l-5.7-5.6c0.9-1.8,1.7-3.7,2.3-5.6h8
			c3.1,0,5.5-2.5,5.5-5.5v-13.2C264.7,198.1,262.2,195.6,259.2,195.6L259.2,195.6z M73.2,67h166.5v26.8H73.2V67z M173.1,231.2
			c-0.5,0.5-0.9,1.2-1.2,1.8H72.8V102.4h166.5v63.5c-0.7,0.3-1.4,0.7-2,1.3l-5.7,5.6c-1.8-0.9-3.7-1.7-5.7-2.3v-8
			c0-3.1-2.5-5.5-5.5-5.5h-13.3c-3.1,0-5.5,2.5-5.5,5.5v8c-2,0.7-3.9,1.4-5.7,2.3l-5.7-5.6c-2.2-2.2-5.7-2.2-7.9,0l-9.4,9.3
			c-2.2,2.2-2.2,5.7,0,7.9l5.7,5.6c-0.9,1.8-1.7,3.7-2.3,5.6h-8c-3.1,0-5.5,2.5-5.5,5.5v13.2c0,3.1,2.5,5.5,5.5,5.5h8
			c0.7,2,1.4,3.8,2.3,5.6L173.1,231.2L173.1,231.2z M256.1,211.3H246c-0.7,6.3-3.2,12-6.9,16.7l7.1,7.1l-5,5l-7.1-7.2
			c-4.7,3.8-10.4,6.2-16.7,6.9V250h-7.1v-10.1c-6.3-0.7-12-3.2-16.7-6.9l-7.1,7.1l-5-5l7.1-7.1c-3.8-4.7-6.2-10.4-6.9-16.7h-10.1
			v-7.1h10.1c0.7-6.3,3.2-12,6.9-16.7l-7.1-7.1l5-5l7.1,7.1c4.7-3.8,10.4-6.2,16.7-6.9v-10.1h7.1v10.1c6.3,0.7,12,3.2,16.7,6.9
			l7.1-7.1l5,5l-7.1,7.1c3.8,4.7,6.2,10.4,6.9,16.7h10.1V211.3z"/>
	</g>
</g>
<g>
	<path class="st2" d="M307.6,280.1H17.1"/>
	<path class="st2" d="M312.3,274.9"/>
	<line class="st2" x1="54.1" y1="199.7" x2="54.1" y2="263"/>
	<line class="st2" x1="100.4" y1="169.2" x2="100.4" y2="263"/>
	<line class="st2" x1="146.6" y1="172.2" x2="146.6" y2="263"/>
	<line class="st2" x1="192.8" y1="118.5" x2="192.8" y2="263"/>
	<line class="st2" x1="239.1" y1="98.8" x2="239.1" y2="263"/>
	<line class="st2" x1="285.3" y1="60.8" x2="285.3" y2="263"/>
	<path class="st2" d="M93.8,136.6"/>
	<path class="st2" d="M281.7,25.3l-46.2,48.9c-0.8,0.8-1.8,1.4-2.9,1.6l-44,7.6l-45,68.7c-1.1,1.7-3.2,2.6-5.2,2.3l-43.9-7.1
		l-44.4,36c-1,0.8-2.1,1.2-3.3,1.2"/>
</g>
</svg>
