<?xml version="1.0" encoding="utf-8"?>
<!-- Generator: Adobe Illustrator 22.1.0, SVG Export Plug-In . SVG Version: 6.00 Build 0)  -->
<svg version="1.1" id="Layer_1" xmlns="http://www.w3.org/2000/svg" xmlns:xlink="http://www.w3.org/1999/xlink" x="0px" y="0px"
	 viewBox="0 0 329.4 317" style="enable-background:new 0 0 329.4 317;" xml:space="preserve">
<style type="text/css">
	.st0{display:none;}
	.st1{display:inline;}
	.st2{fill:none;stroke:#000000;stroke-width:7;stroke-miterlimit:10;}
</style>
<title>amit</title>
<g class="st0">
	<g class="st1">
		<rect x="214.1" y="76" width="8.5" height="8.5"/>
		<rect x="192.7" y="76" width="8.5" height="8.5"/>
		<rect x="171.4" y="76" width="8.5" height="8.5"/>
		<polygon points="115.1,140.7 144.5,153.9 144.5,148.3 121,138.5 144.5,128.8 144.5,123.2 115.1,135.5 		"/>
		<polygon points="160.7,114.7 147.9,160.7 152.2,160.7 165,114.7 		"/>
		<polygon points="197.9,135.1 168.4,122.8 168.4,128.3 191.9,138.1 168.4,147.9 168.4,153.4 197.9,140.7 		"/>
		<path d="M214.1,184.1c-12.8,0-23.5,10.6-23.5,23.4s10.7,23.4,23.5,23.4s23.5-10.6,23.5-23.4S226.9,184.1,214.1,184.1z
			 M214.1,222.4c-8.1,0-14.9-6.8-14.9-14.9s6.8-14.9,14.9-14.9c8.1,0,14.9,6.8,14.9,14.9C229,215.6,222.2,222.4,214.1,222.4z"/>
		<path d="M259.2,195.6h-8c-0.7-2-1.4-3.8-2.3-5.6l5.7-5.6c2.2-2.2,2.2-5.7,0-7.9l-6.2-6.2V58.5H64.7v178.8c0,2.5,1.7,4.3,4.3,4.3
			h106.6l6.8,6.8c2.2,2.2,5.7,2.2,7.9,0l5.7-5.6c1.8,0.9,3.7,1.7,5.7,2.3v8c0,3.1,2.5,5.5,5.5,5.5h13.3c3.1,0,5.5-2.5,5.5-5.5v-8
			c2-0.7,3.9-1.4,5.7-2.3l5.7,5.6c2.2,2.2,5.7,2.2,7.9,0l9.4-9.3c2.2-2.2,2.2-5.7,0-7.9l-5.7-5.6c0.9-1.8,1.7-3.7,2.3-5.6h8
			c3.1,0,5.5-2.5,5.5-5.5v-13.2C264.7,198.1,262.2,195.6,259.2,195.6L259.2,195.6z M73.2,67h166.5v26.8H73.2V67z M173.1,231.2
			c-0.5,0.5-0.9,1.2-1.2,1.8H72.8V102.4h166.5v63.5c-0.7,0.3-1.4,0.7-2,1.3l-5.7,5.6c-1.8-0.9-3.7-1.7-5.7-2.3v-8
			c0-3.1-2.5-5.5-5.5-5.5h-13.3c-3.1,0-5.5,2.5-5.5,5.5v8c-2,0.7-3.9,1.4-5.7,2.3l-5.7-5.6c-2.2-2.2-5.7-2.2-7.9,0l-9.4,9.3
			c-2.2,2.2-2.2,5.7,0,7.9l5.7,5.6c-0.9,1.8-1.7,3.7-2.3,5.6h-8c-3.1,0-5.5,2.5-5.5,5.5v13.2c0,3.1,2.5,5.5,5.5,5.5h8
			c0.7,2,1.4,3.8,2.3,5.6L173.1,231.2L173.1,231.2z M256.1,211.3H246c-0.7,6.3-3.2,12-6.9,16.7l7.1,7.1l-5,5l-7.1-7.2
			c-4.7,3.8-10.4,6.2-16.7,6.9V250h-7.1v-10.1c-6.3-0.7-12-3.2-16.7-6.9l-7.1,7.1l-5-5l7.1-7.1c-3.8-4.7-6.2-10.4-6.9-16.7h-10.1
			v-7.1h10.1c0.7-6.3,3.2-12,6.9-16.7l-7.1-7.1l5-5l7.1,7.1c4.7-3.8,10.4-6.2,16.7-6.9v-10.1h7.1v10.1c6.3,0.7,12,3.2,16.7,6.9
			l7.1-7.1l5,5l-7.1,7.1c3.8,4.7,6.2,10.4,6.9,16.7h10.1V211.3z"/>
	</g>
</g>
<g>
	<g>
		<path class="st2" d="M273.1,95.4c0,45.3,0,80.7,0,126c0,17.5-4,21.6-21.5,21.6c-32.4,0.1-64.7,0.1-97.1,0.1l0,0
			c-33.5,0-66.9,0.1-100.4,0c-12.8,0-17.4-4.7-18-17.5c0-0.9-0.1-1.9-0.1-2.8c0-46,0-91.9,0-137.9c0-1.7,0.1-3.4,0.2-5.2
			C37.1,69.9,42,64.9,52,64.8c21.3-0.2,42.5-0.2,63.8-0.2c45.8,0,68.6,0,114.4,0"/>
		<path class="st2" d="M154.5,284.3c-11.4,0-22.8,0.1-34.2,0c-2.3,0-5.5,1.1-5.9-2.8c-0.4-3.3,2.5-3.4,4.7-4.1
			c1.8-0.6,3.5-1.3,5.2-2c7.4-3.2,12.4-7.9,10.9-16.8c-0.7-4.2,1-5.3,5.1-5.2c10,0.3,20,0.2,30,0.1c2.6,0,3.5,0.7,3.6,3.4
			c0.6,13.3,3.1,16.4,15.8,20.4c0.7,0.2,1.5,0.4,2.3,0.6c1.9,0.5,3,1.7,2.8,3.7c-0.3,2.2-1.9,2.6-3.7,2.6c-3.9,0-7.8,0-11.7,0
			C171.1,284.3,162.8,284.3,154.5,284.3L154.5,284.3z"/>
	</g>
	<g>
		<path class="st2" d="M52,222.6c5.4-11,9-22.8,18.6-31.5c13.1-11.8,25.3-24.6,37.6-37.3c3-3.1,4.9-3.1,7.3,0.2
			c0.5,0.7,1.2,1.3,1.8,1.9c7.3,7.3,7.3,7.3,0.1,14.4C107,180.8,96,190.8,86.1,201.8C76.8,212.3,64.6,217.3,52,222.6z M74.1,208.9
			c0.1-1.3-6.7-8.7-7.8-8.2c-4.1,1.9-4.7,6.3-6.1,9.9c-0.8,2.1,0.9,3.7,3.1,4.1C65.2,215.1,74,210.3,74.1,208.9z"/>
		<path class="st2" d="M69.5,138.6c3.6,0.5,6.6,2.4,8.8,5.3c4,5.4,7.7,10.9,11.7,16.3c1.5,2,1,3.3-0.5,5c-6.8,7.5-6.8,7.5-13.3,0.3
			c-3.6-3.9-7.2-7.8-10.5-11.8c-2.2-2.6-3.7-5.7-2.9-9.2C63.4,140.9,66,139.2,69.5,138.6z"/>
		<path class="st2" d="M125,138.7c3.4,0.9,5.2,3.9,7.6,6.2c2.1,2.1,5.5,3.9,2.5,7.8c-4,5.4-5.3,5.5-10,0.7c-1.5-1.5-3.1-2.9-4.4-4.5
			c-1.1-1.4-4-2.2-2.5-4.5C119.7,142,121.8,139.8,125,138.7z"/>
		<path class="st2" d="M139.8,222.4c-6.3,0.6-12.2,0.2-17.8-2.2c-5.2-2.1-5.6-4.9-1.6-8.5c5.8-5.2,10.9-4.1,13.6,3.2
			C135.1,218,137.1,220.3,139.8,222.4z"/>
		<path class="st2" d="M107.5,187.2c2.1,0.7,2.7,1.7,3.3,2.5c2.8,4,5.6,8.1,8.5,12c1.5,2,1.6,3.7-0.4,5.5c-2.4,2.1-3.7,0.5-5.2-1.1
			c-3-3.2-6-6.4-8.9-9.6c-1-1.1-2.7-2.2-1.4-4C104.5,190.6,106,188.9,107.5,187.2z"/>
	</g>
	<path class="st2" d="M216.1,180.6c2.3-2.1,2.8-5.2,3.7-7.9c1.5-4.3,4.3-7,8.6-8.1c2.2-0.6,4.3-0.7,6.4,0.3c0.9,0.4,1.9,0.8,2.7,1.2
		c7.4,3.9,7,2.7,12.8-3.2c1.3-1.4,1.4-3.2,0.6-5c-1-2.2-1.9-4.4-2.9-6.6c-2.3-4.9,1.2-13.3,6.6-15c2-0.6,3.9-1.4,5.9-2.2
		s3.1-2.2,3.1-4.5c0-0.7,0-1.5,0-2.2c0-5.9-0.2-6.4-5.7-8.2c-5.2-1.8-9.4-4.3-10.5-10.5c-0.3-1.7-0.5-3.3,0.2-4.9
		c0.4-1.1,0.8-2.3,1.3-3.4c3.4-7.5,3.4-7.5-2.4-13c-1.8-1.7-3.6-2-5.7-0.9c-1.8,0.9-3.6,1.7-5.4,2.6c-5.8,2.9-13.8-1.1-15.3-6.9
		c-0.4-1.6-1.2-3.1-1.6-4.7c-0.8-3-2.7-4.3-5.6-4.2c-1.3,0-2.5,0.1-3.8,0c-2.5,0-4,1.4-4.8,3.7c-0.7,2-1.5,4-2.2,6
		c-1.7,5.4-10,8.8-15.1,6c-1.6-0.9-3.3-1.6-4.9-2.4c-0.7-0.3-1.3-0.7-2-0.8c-4-0.4-5.4,3.3-7.7,5.4c-1.5,1.4-1.4,3.3-0.5,5.2
		c0.7,1.5,1.4,3,2.1,4.6c3.2,7.5,0.7,14-6.6,17.1c-0.5,0.2-1,0.4-1.5,0.6c-7,2.2-6.9,2.8-6.7,10.8c0.1,2.3,1.2,3.8,3.3,4.6
		c2,0.7,3.9,1.5,5.9,2.2c6.3,2.3,8.8,11.1,6.1,16.1c-0.8,1.5-1.4,3-2.1,4.5c-1.3,2.6-1.1,4.8,1.1,6.8c0.1,0.1,0.3,0.3,0.4,0.4
		c4.9,5.1,5,5.2,11.2,2c4.8-2.5,9.2-2.8,13.9,0.4c2.2,1.5,3.2,3.7,4.1,6.1c1.1,2.7,1.5,5.8,3.7,8
		C209.6,180.6,212.8,180.6,216.1,180.6z M189.2,127.1c0-12.5,9.8-22.6,21.9-22.7c12.1-0.1,22.3,10.3,22.2,22.8s-9.9,22.7-22,22.7
		C199,149.8,189.2,139.8,189.2,127.1z"/>
	<path class="st2" d="M287.4,43.5c-0.8,0.1-1.5,0.2-2.1,0.3c-5.5,0.9-8.2-1.1-8.5-6.8c-0.1-2.7-1.2-3.8-3.6-4.3
		c-1.9-0.4-3.1,0.1-4.1,1.7c-0.9,1.5-1.8,3.1-3.5,3.8c-2.9,1.2-5.2,0.3-7.5-1.7c-2.5-2.3-3.6-2.2-6.2-0.2c-1.1,0.8-1.5,1.8-1.2,3.1
		c0.1,0.5,0.2,1.1,0.3,1.7c0.8,5.4-1.2,8-6.4,8.3c-2.6,0.2-4,1.2-4.4,3.9c-0.3,1.8,0,3,1.6,4c1.5,1,3.1,2,3.9,3.8
		c1.2,3,0.3,5.5-1.8,7.6c-1.7,1.7-1.9,3.3-0.6,5.5c1.2,2.2,2.7,2.3,4.8,1.9c5.4-1.1,8.2,1.1,8.6,6.6c0.1,2.2,0.7,3.6,3,4.3
		c2.3,0.6,3.7,0.1,5-1.9c3.2-4.9,6.5-5.4,10.8-1.5c1.8,1.6,3.3,1.9,5.3,0.6c1.9-1.2,2.2-2.6,1.8-4.7c-1.2-5.9,0.8-8.6,6.7-9.1
		c2.3-0.2,3.3-1.1,3.9-3.4c0.7-2.4-0.2-3.6-2-4.8c-3.3-2.2-4.4-4.6-3.6-7.7c0.4-1.8,1.8-3,2.9-4.3s1-2.5,0.2-3.8
		C289.7,45.1,289.2,43.4,287.4,43.5z M255.2,60c0-6.6,5-11.7,11.4-11.7s11.7,5.3,11.6,11.8c0,6.5-5.4,11.9-11.7,11.8
		C260.2,71.8,255.2,66.5,255.2,60z"/>
</g>
</svg>
