<?xml version="1.0" encoding="utf-8"?>
<!-- Generator: Adobe Illustrator 22.1.0, SVG Export Plug-In . SVG Version: 6.00 Build 0)  -->
<svg version="1.1" id="Layer_1" xmlns="http://www.w3.org/2000/svg" xmlns:xlink="http://www.w3.org/1999/xlink" x="0px" y="0px"
	 viewBox="0 0 329.4 317" style="enable-background:new 0 0 329.4 317;" xml:space="preserve">
<style type="text/css">
	.st0{display:none;}
	.st1{display:inline;}
	.st2{fill:none;stroke:#FFDE00;stroke-width:7;stroke-miterlimit:10;}
</style>
<title>amit</title>
<g class="st0">
	<g class="st1">
		<rect x="214.1" y="76" width="8.5" height="8.5"/>
		<rect x="192.7" y="76" width="8.5" height="8.5"/>
		<rect x="171.4" y="76" width="8.5" height="8.5"/>
		<polygon points="115.1,140.7 144.5,153.9 144.5,148.3 121,138.5 144.5,128.8 144.5,123.2 115.1,135.5 		"/>
		<polygon points="160.7,114.7 147.9,160.7 152.2,160.7 165,114.7 		"/>
		<polygon points="197.9,135.1 168.4,122.8 168.4,128.3 191.9,138.1 168.4,147.9 168.4,153.4 197.9,140.7 		"/>
		<path d="M214.1,184.1c-12.8,0-23.5,10.6-23.5,23.4s10.7,23.4,23.5,23.4s23.5-10.6,23.5-23.4S226.9,184.1,214.1,184.1z
			 M214.1,222.4c-8.1,0-14.9-6.8-14.9-14.9s6.8-14.9,14.9-14.9c8.1,0,14.9,6.8,14.9,14.9C229,215.6,222.2,222.4,214.1,222.4z"/>
		<path d="M259.2,195.6h-8c-0.7-2-1.4-3.8-2.3-5.6l5.7-5.6c2.2-2.2,2.2-5.7,0-7.9l-6.2-6.2V58.5H64.7v178.8c0,2.5,1.7,4.3,4.3,4.3
			h106.6l6.8,6.8c2.2,2.2,5.7,2.2,7.9,0l5.7-5.6c1.8,0.9,3.7,1.7,5.7,2.3v8c0,3.1,2.5,5.5,5.5,5.5h13.3c3.1,0,5.5-2.5,5.5-5.5v-8
			c2-0.7,3.9-1.4,5.7-2.3l5.7,5.6c2.2,2.2,5.7,2.2,7.9,0l9.4-9.3c2.2-2.2,2.2-5.7,0-7.9l-5.7-5.6c0.9-1.8,1.7-3.7,2.3-5.6h8
			c3.1,0,5.5-2.5,5.5-5.5v-13.2C264.7,198.1,262.2,195.6,259.2,195.6L259.2,195.6z M73.2,67h166.5v26.8H73.2V67z M173.1,231.2
			c-0.5,0.5-0.9,1.2-1.2,1.8H72.8V102.4h166.5v63.5c-0.7,0.3-1.4,0.7-2,1.3l-5.7,5.6c-1.8-0.9-3.7-1.7-5.7-2.3v-8
			c0-3.1-2.5-5.5-5.5-5.5h-13.3c-3.1,0-5.5,2.5-5.5,5.5v8c-2,0.7-3.9,1.4-5.7,2.3l-5.7-5.6c-2.2-2.2-5.7-2.2-7.9,0l-9.4,9.3
			c-2.2,2.2-2.2,5.7,0,7.9l5.7,5.6c-0.9,1.8-1.7,3.7-2.3,5.6h-8c-3.1,0-5.5,2.5-5.5,5.5v13.2c0,3.1,2.5,5.5,5.5,5.5h8
			c0.7,2,1.4,3.8,2.3,5.6L173.1,231.2L173.1,231.2z M256.1,211.3H246c-0.7,6.3-3.2,12-6.9,16.7l7.1,7.1l-5,5l-7.1-7.2
			c-4.7,3.8-10.4,6.2-16.7,6.9V250h-7.1v-10.1c-6.3-0.7-12-3.2-16.7-6.9l-7.1,7.1l-5-5l7.1-7.1c-3.8-4.7-6.2-10.4-6.9-16.7h-10.1
			v-7.1h10.1c0.7-6.3,3.2-12,6.9-16.7l-7.1-7.1l5-5l7.1,7.1c4.7-3.8,10.4-6.2,16.7-6.9v-10.1h7.1v10.1c6.3,0.7,12,3.2,16.7,6.9
			l7.1-7.1l5,5l-7.1,7.1c3.8,4.7,6.2,10.4,6.9,16.7h10.1V211.3z"/>
	</g>
</g>
<g>
	<path class="st2" d="M185.2,298.8c-0.1-26.1-0.2-52.2-0.4-78.4c0-3.1,1.4-5.2,3.3-7.2c4.2-4.3,7.9-8.9,11.2-13.9
		c2.6-3.8,1.7-5.1-2.8-5.1c-13.8,0.1-27.5,0-41.3,0c-11.8,0-23.6,0-37.7,0c5.9,5.7,10.2,10.1,14.7,14.2c3,2.7,3.3,4.7,0.2,7.8
		c-2.9,2.9-4.7,2.5-7.3-0.2c-7.6-7.9-15.4-15.7-23.3-23.4c-2.8-2.7-2.7-4.6,0-7.2c7.8-7.5,15.4-15.1,22.8-22.9
		c2.8-3,4.7-3.1,7.8-0.2c3.5,3.4,1.9,5.3-0.8,7.7c-4.4,4-8.7,8.1-13,12.1c2.2,2.6,4.2,1.8,5.9,1.8c25.2,0.1,50.4-0.1,75.6,0.2
		c5.8,0.1,8-2.1,9.4-7.3c9-35,1-65.5-26.3-89C156.3,64.5,125,59,92.2,73.9c-33.1,15-49.8,42-51,78.3c-0.2,4.6-1.2,8.4-3.5,12.2
		c-7.5,12.2-14.8,24.5-23,38c4.9,0,8.5,0.2,12.1,0c5.3-0.4,7.4,1.7,7.2,7.2c0,11.5,0,23,0.2,34.4c0.3,14.4,5.7,19.9,20.1,20.3
		c11.7,0.3,23.4,0.7,35-0.5c5.7-0.6,8.4,0.9,8,7.5c-0.6,9.1-0.1,18.3-0.1,27.5"/>
	<path class="st2" d="M151.8,134.3c-3.6,0-7.2,0-10.8,0c-24.5-0.1-49-0.3-73.5-0.3c-3.4,0-6.1,0.2-6.1-4.8c0-5.1,3-4.6,6.3-4.6
		c27.9,0,55.9,0,83.8,0c0.3-0.6,0.7-1.2,1-1.8c-4.2-4.2-8.3-8.5-12.6-12.6c-2.8-2.6-3.7-4.5-0.5-7.8c3.2-3.2,5-2.6,7.7,0.3
		c7.4,7.8,15,15.4,22.8,22.9c3.1,3,2.9,4.9-0.1,7.8c-7.8,7.4-15.4,15.1-22.9,22.8c-2.7,2.8-4.6,2.9-7.3,0.1
		c-2.5-2.6-3.3-4.5-0.2-7.2c4.6-4.1,8.9-8.5,13.3-12.7C152.5,135.6,152.1,135,151.8,134.3z"/>
</g>
<g>
	<path class="st2" d="M268.7,67.8c0,10.7-0.1,21.4,0,32.1c0,2.6-0.1,3.9-3.4,3.1c-30.2-7.7-60.4-15.2-90.7-22.7
		c-2.1-0.5-3.1-1.4-3-3.7c0.2-6,0.2-12.1,0-18.2c-0.1-2.4,1-3.2,3-3.7c30.2-7.5,60.5-15,90.7-22.6c2.6-0.7,3.4-0.2,3.4,2.7
		C268.6,45.8,268.7,56.8,268.7,67.8z"/>
	<path class="st2" d="M309.9,63.7c5.3,0.2,10.5,0.2,15.8,0"/>
	<path class="st2" d="M304.4,94.6c4.8,2.4,9.9,4.3,14.8,6.5"/>
	<path class="st2" d="M301.5,35.3c4.8-1.7,9.4-3.8,14.1-5.7"/>
	<path class="st2" d="M301.1,3.1c-4.3,4.2-8.5,8.5-12.8,12.8c-0.4,0.4-0.9,0.8-2.2,1.8"/>
	<path class="st2" d="M288.7,119.5c3.9,4.2,8.1,8.1,12.1,12.2c0.5,0.5,1,1.1,2,2.3"/>
	<path class="st2" d="M276.3,81.7c0-9.7,0-18.8,0-28C285.9,58.7,286.1,74.5,276.3,81.7z"/>
	<path class="st2" d="M163.6,60.5c-0.1,1.8,0,14.8-0.1,16.7"/>
</g>
</svg>
