<?xml version="1.0" encoding="utf-8"?>
<!-- Generator: Adobe Illustrator 22.1.0, SVG Export Plug-In . SVG Version: 6.00 Build 0)  -->
<svg version="1.1" id="Layer_1" xmlns="http://www.w3.org/2000/svg" xmlns:xlink="http://www.w3.org/1999/xlink" x="0px" y="0px"
	 viewBox="0 0 329.4 317" style="enable-background:new 0 0 329.4 317;" xml:space="preserve">
<style type="text/css">
	.st0{display:none;}
	.st1{display:inline;}
	.st2{fill:none;stroke:#000000;stroke-width:7;stroke-miterlimit:10;}
</style>
<title>amit</title>
<g class="st0">
	<g class="st1">
		<rect x="214.1" y="76" width="8.5" height="8.5"/>
		<rect x="192.7" y="76" width="8.5" height="8.5"/>
		<rect x="171.4" y="76" width="8.5" height="8.5"/>
		<polygon points="115.1,140.7 144.5,153.9 144.5,148.3 121,138.5 144.5,128.8 144.5,123.2 115.1,135.5 		"/>
		<polygon points="160.7,114.7 147.9,160.7 152.2,160.7 165,114.7 		"/>
		<polygon points="197.9,135.1 168.4,122.8 168.4,128.3 191.9,138.1 168.4,147.9 168.4,153.4 197.9,140.7 		"/>
		<path d="M214.1,184.1c-12.8,0-23.5,10.6-23.5,23.4s10.7,23.4,23.5,23.4s23.5-10.6,23.5-23.4S226.9,184.1,214.1,184.1z
			 M214.1,222.4c-8.1,0-14.9-6.8-14.9-14.9s6.8-14.9,14.9-14.9c8.1,0,14.9,6.8,14.9,14.9C229,215.6,222.2,222.4,214.1,222.4z"/>
		<path d="M259.2,195.6h-8c-0.7-2-1.4-3.8-2.3-5.6l5.7-5.6c2.2-2.2,2.2-5.7,0-7.9l-6.2-6.2V58.5H64.7v178.8c0,2.5,1.7,4.3,4.3,4.3
			h106.6l6.8,6.8c2.2,2.2,5.7,2.2,7.9,0l5.7-5.6c1.8,0.9,3.7,1.7,5.7,2.3v8c0,3.1,2.5,5.5,5.5,5.5h13.3c3.1,0,5.5-2.5,5.5-5.5v-8
			c2-0.7,3.9-1.4,5.7-2.3l5.7,5.6c2.2,2.2,5.7,2.2,7.9,0l9.4-9.3c2.2-2.2,2.2-5.7,0-7.9l-5.7-5.6c0.9-1.8,1.7-3.7,2.3-5.6h8
			c3.1,0,5.5-2.5,5.5-5.5v-13.2C264.7,198.1,262.2,195.6,259.2,195.6L259.2,195.6z M73.2,67h166.5v26.8H73.2V67z M173.1,231.2
			c-0.5,0.5-0.9,1.2-1.2,1.8H72.8V102.4h166.5v63.5c-0.7,0.3-1.4,0.7-2,1.3l-5.7,5.6c-1.8-0.9-3.7-1.7-5.7-2.3v-8
			c0-3.1-2.5-5.5-5.5-5.5h-13.3c-3.1,0-5.5,2.5-5.5,5.5v8c-2,0.7-3.9,1.4-5.7,2.3l-5.7-5.6c-2.2-2.2-5.7-2.2-7.9,0l-9.4,9.3
			c-2.2,2.2-2.2,5.7,0,7.9l5.7,5.6c-0.9,1.8-1.7,3.7-2.3,5.6h-8c-3.1,0-5.5,2.5-5.5,5.5v13.2c0,3.1,2.5,5.5,5.5,5.5h8
			c0.7,2,1.4,3.8,2.3,5.6L173.1,231.2L173.1,231.2z M256.1,211.3H246c-0.7,6.3-3.2,12-6.9,16.7l7.1,7.1l-5,5l-7.1-7.2
			c-4.7,3.8-10.4,6.2-16.7,6.9V250h-7.1v-10.1c-6.3-0.7-12-3.2-16.7-6.9l-7.1,7.1l-5-5l7.1-7.1c-3.8-4.7-6.2-10.4-6.9-16.7h-10.1
			v-7.1h10.1c0.7-6.3,3.2-12,6.9-16.7l-7.1-7.1l5-5l7.1,7.1c4.7-3.8,10.4-6.2,16.7-6.9v-10.1h7.1v10.1c6.3,0.7,12,3.2,16.7,6.9
			l7.1-7.1l5,5l-7.1,7.1c3.8,4.7,6.2,10.4,6.9,16.7h10.1V211.3z"/>
	</g>
</g>
<g>
	<path class="st2" d="M128.3,103c-24.1,0-48.2,0-72.4,0c-8,0-9.2,1.1-9.2,8.9c0,47,0,93.9-0.1,140.9c0,4.1,0.9,5.5,5.3,5.5
		c75.2-0.1,150.5-0.1,225.7,0c4,0,5.2-1.1,5.2-5.2c-0.1-47.3-0.1-94.7-0.1-142c0-7-1.3-8.1-8.3-8.2c-3.6,0-7.2-0.1-10.8,0"/>
	<path class="st2" d="M164.8,264.1c-17.5,0-34.9,0-52.4,0c-25.4,0-50.7,0-76.1,0.1c-1.8,0-4.7-1.4-4.6,2.5
		c0.1,4.9,8.7,13.6,13.6,13.6c77.9,0,155.8-0.1,233.7,0.2c7.7,0,13-1.7,16.4-8.7c1-2.1,3.1-4,2-6.4c-1.1-2.5-3.8-1.2-5.7-1.2
		C249.4,264.1,207.1,264.1,164.8,264.1z"/>
	<path class="st2" d="M254.5,92.7c-0.2,2.8-0.4,5.4-1.2,8.1c-1.3,4.4-4,6.9-8.8,7.4c-9.6,1-19.2,2.5-28.9,3.5
		c-3.1,0.3-3.9,1.4-3.6,4.4c1.6,13.1-8,22.3-17.9,23.7c-11.7,1.7-21.6-6.1-24-18.9c-0.5-2.8-1.2-3.7-4-3c-2.4,0.5-5,0.6-7.5,0.7
		c-8.6,0.2-14.9-3.8-17.5-10.8c-2.6-7.3-0.4-15,6.1-20.2c12.1-9.6,24.4-19,36.5-28.5c10.3-8.1,20.6-16.2,30.8-24.4
		c2.8-2.2,5.6-2,8.6-1.1c3.1,1,5.7,3,8,5.4C245.5,54.1,252.3,72.4,254.5,92.7z M217.3,46.8c0.1,15.7,10.3,39.6,21.3,50.3
		c0.9,0.9,1.8,1.7,2.8,2.5c3.9,2.7,5.7,1.9,6.6-2.7c0.3-1.4,0.5-2.9,0.4-4.3c-1.7-18.8-8.5-35.4-20.9-49.7c-2-2.3-4.5-5.7-8-4.1
		C216.3,40.3,217.6,44.2,217.3,46.8z M205.9,117.8c0.2-3-0.6-5-5.2-4.2c-6.7,1.2-13.5,2-20.3,2.4c-4,0.2-4.4,2.1-3.9,5.2
		c1.1,7.1,8.1,12.7,15.4,12.3C200,133,205.9,126.6,205.9,117.8z"/>
	<path class="st2" d="M78.1,245.9c0-6.3-0.1-11.2,0.1-16c0.1-2.9-0.9-3.5-3.7-3.7c-4-0.3-9.3,2.2-11.6-1.3
		c-1.8-2.8-0.5-7.7-0.5-11.6c0-18.2,0.1-36.3-0.1-54.5c0-3.9,0.9-5.3,5.1-5.3c33.6,0.2,67.3,0.2,100.9,0.1c3.6,0,5,0.7,5,4.7
		c-0.2,21-0.2,42.1,0,63.1c0,4.1-1.2,5.1-5.1,5c-19.4-0.2-38.8,0-58.3-0.2c-4.4-0.1-7.8,1.2-11.2,3.9
		C92.3,235.3,85.6,240.2,78.1,245.9z"/>
	<path class="st2" d="M278.8,53.4c-3.3,1.4-15.7,7.2-19,8.6"/>
	<path class="st2" d="M245.7,42c1.4-3.5,6-12.1,7.4-15.6"/>
	<path class="st2" d="M280.6,89.3c-2.5-1.3-15.1-7.3-17.8-8.3"/>
	<path class="st2" d="M102.4,189.5c0-4.5-0.1-9,0-13.5c0.1-3.7,2.3-4.9,5.4-3.3c9,4.4,18,8.9,26.8,13.7c3.7,2,3.6,4.8-0.1,6.8
		c-8.7,4.6-17.5,9-26.4,13.4c-4.2,2.1-5.6-0.6-5.8-4.2C102.2,198.1,102.4,193.8,102.4,189.5C102.4,189.5,102.4,189.5,102.4,189.5z"
		/>
	<line class="st2" x1="184.5" y1="161.3" x2="263.5" y2="161.3"/>
	<line class="st2" x1="184.5" y1="184.4" x2="263.5" y2="184.4"/>
	<line class="st2" x1="184.5" y1="207.6" x2="263.5" y2="207.6"/>
</g>
</svg>
