<?xml version="1.0" encoding="utf-8"?>
<!-- Generator: Adobe Illustrator 22.1.0, SVG Export Plug-In . SVG Version: 6.00 Build 0)  -->
<svg version="1.1" id="Layer_1" xmlns="http://www.w3.org/2000/svg" xmlns:xlink="http://www.w3.org/1999/xlink" x="0px" y="0px"
	 viewBox="0 0 329.4 317" style="enable-background:new 0 0 329.4 317;" xml:space="preserve">
<style type="text/css">
	.st0{display:none;}
	.st1{display:inline;}
	.st2{fill:none;stroke:#FFDE00;stroke-width:7;stroke-miterlimit:10;}
</style>
<title>amit</title>
<g class="st0">
	<g class="st1">
		<rect x="214.1" y="76" width="8.5" height="8.5"/>
		<rect x="192.7" y="76" width="8.5" height="8.5"/>
		<rect x="171.4" y="76" width="8.5" height="8.5"/>
		<polygon points="115.1,140.7 144.5,153.9 144.5,148.3 121,138.5 144.5,128.8 144.5,123.2 115.1,135.5 		"/>
		<polygon points="160.7,114.7 147.9,160.7 152.2,160.7 165,114.7 		"/>
		<polygon points="197.9,135.1 168.4,122.8 168.4,128.3 191.9,138.1 168.4,147.9 168.4,153.4 197.9,140.7 		"/>
		<path d="M214.1,184.1c-12.8,0-23.5,10.6-23.5,23.4s10.7,23.4,23.5,23.4s23.5-10.6,23.5-23.4S226.9,184.1,214.1,184.1z
			 M214.1,222.4c-8.1,0-14.9-6.8-14.9-14.9s6.8-14.9,14.9-14.9c8.1,0,14.9,6.8,14.9,14.9C229,215.6,222.2,222.4,214.1,222.4z"/>
		<path d="M259.2,195.6h-8c-0.7-2-1.4-3.8-2.3-5.6l5.7-5.6c2.2-2.2,2.2-5.7,0-7.9l-6.2-6.2V58.5H64.7v178.8c0,2.5,1.7,4.3,4.3,4.3
			h106.6l6.8,6.8c2.2,2.2,5.7,2.2,7.9,0l5.7-5.6c1.8,0.9,3.7,1.7,5.7,2.3v8c0,3.1,2.5,5.5,5.5,5.5h13.3c3.1,0,5.5-2.5,5.5-5.5v-8
			c2-0.7,3.9-1.4,5.7-2.3l5.7,5.6c2.2,2.2,5.7,2.2,7.9,0l9.4-9.3c2.2-2.2,2.2-5.7,0-7.9l-5.7-5.6c0.9-1.8,1.7-3.7,2.3-5.6h8
			c3.1,0,5.5-2.5,5.5-5.5v-13.2C264.7,198.1,262.2,195.6,259.2,195.6L259.2,195.6z M73.2,67h166.5v26.8H73.2V67z M173.1,231.2
			c-0.5,0.5-0.9,1.2-1.2,1.8H72.8V102.4h166.5v63.5c-0.7,0.3-1.4,0.7-2,1.3l-5.7,5.6c-1.8-0.9-3.7-1.7-5.7-2.3v-8
			c0-3.1-2.5-5.5-5.5-5.5h-13.3c-3.1,0-5.5,2.5-5.5,5.5v8c-2,0.7-3.9,1.4-5.7,2.3l-5.7-5.6c-2.2-2.2-5.7-2.2-7.9,0l-9.4,9.3
			c-2.2,2.2-2.2,5.7,0,7.9l5.7,5.6c-0.9,1.8-1.7,3.7-2.3,5.6h-8c-3.1,0-5.5,2.5-5.5,5.5v13.2c0,3.1,2.5,5.5,5.5,5.5h8
			c0.7,2,1.4,3.8,2.3,5.6L173.1,231.2L173.1,231.2z M256.1,211.3H246c-0.7,6.3-3.2,12-6.9,16.7l7.1,7.1l-5,5l-7.1-7.2
			c-4.7,3.8-10.4,6.2-16.7,6.9V250h-7.1v-10.1c-6.3-0.7-12-3.2-16.7-6.9l-7.1,7.1l-5-5l7.1-7.1c-3.8-4.7-6.2-10.4-6.9-16.7h-10.1
			v-7.1h10.1c0.7-6.3,3.2-12,6.9-16.7l-7.1-7.1l5-5l7.1,7.1c4.7-3.8,10.4-6.2,16.7-6.9v-10.1h7.1v10.1c6.3,0.7,12,3.2,16.7,6.9
			l7.1-7.1l5,5l-7.1,7.1c3.8,4.7,6.2,10.4,6.9,16.7h10.1V211.3z"/>
	</g>
</g>
<g>
	<path class="st2" d="M233.7,222.9c0-18.7-10.5-35.5-26.8-46.6c1.1,5.2,1.8,10.5,1.8,16c0,42.3-36,77.7-83.3,85.3
		c10,4,21.2,6.4,33.2,6.4c11.2,0,21.9-2.1,31.5-5.7c12.2,4.1,25.4,5.2,36.4,5.2c-5.7-6.8-9.7-13.6-12.5-19.5
		C226.1,253.2,233.7,238.8,233.7,222.9z"/>
	<path class="st2" d="M189,192.3c0-37.1-37-67.2-82.6-67.2s-82.6,30.1-82.6,67.2c0,19.3,10.1,36.7,26.2,49c-3,7.8-8.2,18-16.9,28.5
		c16.5,0,37.8-2.2,54.1-12.2c6.2,1.2,12.5,1.9,19.1,1.9C152,259.5,189,229.4,189,192.3z"/>
</g>
<path class="st2" d="M222.9,95.6c0,11.9-0.1,23.7,0,35.6c0,2.9-0.1,4.3-3.8,3.4c-33.5-8.5-67-16.8-100.5-25.1
	c-2.3-0.6-3.4-1.5-3.3-4.2c0.2-6.7,0.2-13.4,0-20.1c-0.1-2.7,1.1-3.6,3.4-4.1c33.5-8.3,67-16.7,100.5-25.1c2.9-0.7,3.8-0.2,3.8,3
	C222.8,71.1,222.9,83.4,222.9,95.6z"/>
<path class="st2" d="M268.5,91.1c5.8,0.2,11.7,0.2,17.5,0"/>
<path class="st2" d="M262.4,125.2c5.4,2.6,11,4.8,16.4,7.2"/>
<path class="st2" d="M259.2,59.5c5.3-1.9,10.5-4.2,15.7-6.3"/>
<path class="st2" d="M258.8,23.9c-4.8,4.7-9.5,9.5-14.2,14.2c-0.5,0.5-1,0.9-2.4,2"/>
<path class="st2" d="M245.1,152.8c4.3,4.7,8.9,9,13.4,13.5c0.6,0.6,1.1,1.2,2.2,2.6"/>
<path class="st2" d="M231.3,111c0-10.7,0-20.9,0-31C241.9,85.5,242.1,103,231.3,111z"/>
<path class="st2" d="M106.3,87.5c-0.2,2,0,16.4-0.1,18.5"/>
</svg>
