<?xml version="1.0" encoding="utf-8"?>
<!-- Generator: Adobe Illustrator 22.1.0, SVG Export Plug-In . SVG Version: 6.00 Build 0)  -->
<svg version="1.1" id="Layer_1" xmlns="http://www.w3.org/2000/svg" xmlns:xlink="http://www.w3.org/1999/xlink" x="0px" y="0px"
	 viewBox="0 0 329.4 317" style="enable-background:new 0 0 329.4 317;" xml:space="preserve">
<style type="text/css">
	.st0{display:none;}
	.st1{display:inline;}
	.st2{fill:none;stroke:#000000;stroke-width:7;stroke-miterlimit:10;}
</style>
<title>amit</title>
<g class="st0">
	<g class="st1">
		<rect x="214.1" y="76" width="8.5" height="8.5"/>
		<rect x="192.7" y="76" width="8.5" height="8.5"/>
		<rect x="171.4" y="76" width="8.5" height="8.5"/>
		<polygon points="115.1,140.7 144.5,153.9 144.5,148.3 121,138.5 144.5,128.8 144.5,123.2 115.1,135.5 		"/>
		<polygon points="160.7,114.7 147.9,160.7 152.2,160.7 165,114.7 		"/>
		<polygon points="197.9,135.1 168.4,122.8 168.4,128.3 191.9,138.1 168.4,147.9 168.4,153.4 197.9,140.7 		"/>
		<path d="M214.1,184.1c-12.8,0-23.5,10.6-23.5,23.4s10.7,23.4,23.5,23.4s23.5-10.6,23.5-23.4S226.9,184.1,214.1,184.1z
			 M214.1,222.4c-8.1,0-14.9-6.8-14.9-14.9s6.8-14.9,14.9-14.9c8.1,0,14.9,6.8,14.9,14.9C229,215.6,222.2,222.4,214.1,222.4z"/>
		<path d="M259.2,195.6h-8c-0.7-2-1.4-3.8-2.3-5.6l5.7-5.6c2.2-2.2,2.2-5.7,0-7.9l-6.2-6.2V58.5H64.7v178.8c0,2.5,1.7,4.3,4.3,4.3
			h106.6l6.8,6.8c2.2,2.2,5.7,2.2,7.9,0l5.7-5.6c1.8,0.9,3.7,1.7,5.7,2.3v8c0,3.1,2.5,5.5,5.5,5.5h13.3c3.1,0,5.5-2.5,5.5-5.5v-8
			c2-0.7,3.9-1.4,5.7-2.3l5.7,5.6c2.2,2.2,5.7,2.2,7.9,0l9.4-9.3c2.2-2.2,2.2-5.7,0-7.9l-5.7-5.6c0.9-1.8,1.7-3.7,2.3-5.6h8
			c3.1,0,5.5-2.5,5.5-5.5v-13.2C264.7,198.1,262.2,195.6,259.2,195.6L259.2,195.6z M73.2,67h166.5v26.8H73.2V67z M173.1,231.2
			c-0.5,0.5-0.9,1.2-1.2,1.8H72.8V102.4h166.5v63.5c-0.7,0.3-1.4,0.7-2,1.3l-5.7,5.6c-1.8-0.9-3.7-1.7-5.7-2.3v-8
			c0-3.1-2.5-5.5-5.5-5.5h-13.3c-3.1,0-5.5,2.5-5.5,5.5v8c-2,0.7-3.9,1.4-5.7,2.3l-5.7-5.6c-2.2-2.2-5.7-2.2-7.9,0l-9.4,9.3
			c-2.2,2.2-2.2,5.7,0,7.9l5.7,5.6c-0.9,1.8-1.7,3.7-2.3,5.6h-8c-3.1,0-5.5,2.5-5.5,5.5v13.2c0,3.1,2.5,5.5,5.5,5.5h8
			c0.7,2,1.4,3.8,2.3,5.6L173.1,231.2L173.1,231.2z M256.1,211.3H246c-0.7,6.3-3.2,12-6.9,16.7l7.1,7.1l-5,5l-7.1-7.2
			c-4.7,3.8-10.4,6.2-16.7,6.9V250h-7.1v-10.1c-6.3-0.7-12-3.2-16.7-6.9l-7.1,7.1l-5-5l7.1-7.1c-3.8-4.7-6.2-10.4-6.9-16.7h-10.1
			v-7.1h10.1c0.7-6.3,3.2-12,6.9-16.7l-7.1-7.1l5-5l7.1,7.1c4.7-3.8,10.4-6.2,16.7-6.9v-10.1h7.1v10.1c6.3,0.7,12,3.2,16.7,6.9
			l7.1-7.1l5,5l-7.1,7.1c3.8,4.7,6.2,10.4,6.9,16.7h10.1V211.3z"/>
	</g>
</g>
<g>
	<g>
		<path class="st2" d="M100.1,39.4c-0.1-0.3-0.4-0.6-0.7-0.6l-27.2-4.1L60,9.2c-0.1-0.3-0.5-0.5-0.8-0.5c-0.3,0-0.6,0.2-0.8,0.5
			L46.3,34.7l-27.2,4.1c-0.3,0-0.6,0.3-0.7,0.6c-0.1,0.3,0,0.7,0.2,0.9l19.7,19.9l-4.6,28.1c-0.1,0.3,0.1,0.7,0.4,0.9
			c0.2,0.1,0.3,0.2,0.5,0.2c0.1,0,0.3,0,0.4-0.1l24.3-13.3l24.3,13.3c0.3,0.2,0.7,0.1,0.9-0.1c0.3-0.2,0.4-0.6,0.4-0.9l-4.6-28.1
			l19.7-19.9C100.1,40.1,100.2,39.8,100.1,39.4z M78.4,60.1 M71.5,36.5"/>
		<path class="st2" d="M59.6,17.5l-8.3,17.9"/>
		<path class="st2" d="M39.6,82"/>
		<path class="st2" d="M43.7,61.3l-3.3,20.3"/>
		<path class="st2" d="M31.4,40.2l-5.1,1.1c-0.3,0.1-0.6,0.3-0.7,0.7c-0.1,0.3,0,0.7,0.3,0.9l3.8,3.6"/>
	</g>
</g>
<g>
	<path class="st2" d="M32.1,261.4h267.4V111.5c0-4.9-4-9-9-9H41c-4.9,0-9,4-9,9V261.4z"/>
	<polyline class="st2" points="13.9,261.5 317.6,261.5 317.6,284.8 	"/>
	<path class="st2" d="M317.6,284.8c0,5.5-4.5,10-10,10"/>
	<line class="st2" x1="307.6" y1="294.9" x2="21.9" y2="294.9"/>
	<path class="st2" d="M21.9,294.9c-4.4,0-8-3.6-8-8"/>
	<line class="st2" x1="13.9" y1="286.8" x2="13.9" y2="261.5"/>
	<line class="st2" x1="28.6" y1="278.2" x2="127.1" y2="278.2"/>
	<path class="st2" d="M268.5,280.3c1.2,0,2.1-1,2.1-2.1c0-1.2-0.9-2.1-2.1-2.1s-2.1,0.9-2.1,2.1
		C266.4,279.3,267.3,280.3,268.5,280.3"/>
	<path class="st2" d="M284.4,280.3c1.2,0,2.1-1,2.1-2.1c0-1.2-1-2.1-2.1-2.1c-1.2,0-2.1,0.9-2.1,2.1
		C282.3,279.3,283.2,280.3,284.4,280.3"/>
	<path class="st2" d="M299,280.3c1.2,0,2.1-1,2.1-2.1c0-1.2-1-2.1-2.1-2.1c-1.2,0-2.1,0.9-2.1,2.1
		C296.9,279.3,297.8,280.3,299,280.3"/>
</g>
<g>
	<g>
		<path class="st2" d="M165.3,191.7c0-0.1-0.2-0.2-0.3-0.2l-10.9-1.6l-4.9-9.9c-0.1-0.1-0.2-0.2-0.3-0.2c-0.1,0-0.3,0.1-0.3,0.2
			l-4.9,9.9l-10.9,1.6c-0.1,0-0.2,0.1-0.3,0.2c0,0.1,0,0.3,0.1,0.4l7.9,7.7l-1.9,10.9c0,0.1,0,0.3,0.1,0.3c0.1,0,0.1,0.1,0.2,0.1
			c0.1,0,0.1,0,0.2,0l9.7-5.1l9.7,5.1c0.1,0.1,0.3,0.1,0.4,0c0.1-0.1,0.2-0.2,0.1-0.3l-1.9-10.9l7.9-7.7
			C165.3,192,165.4,191.9,165.3,191.7z M152.1,193.8 M147.9,179.9"/>
		<path class="st2" d="M135.6,179.3"/>
		<path class="st2" d="M140.6,168.8"/>
		<path class="st2" d="M128.5,206.7"/>
		<path class="st2" d="M129,206.4"/>
		<path class="st2" d="M131,194.5"/>
		<path class="st2" d="M120,183.2"/>
	</g>
</g>
<g>
	<g>
		<path class="st2" d="M134.6,136.8c-0.1-0.2-0.3-0.4-0.5-0.4l-20.1-2.9l-9-18.2c-0.1-0.2-0.3-0.4-0.6-0.4c-0.2,0-0.5,0.1-0.6,0.4
			l-9,18.2l-20.1,2.9c-0.2,0-0.4,0.2-0.5,0.4c-0.1,0.2,0,0.5,0.2,0.7l14.5,14.2l-3.4,20c0,0.2,0.1,0.5,0.3,0.6
			c0.1,0.1,0.2,0.1,0.4,0.1c0.1,0,0.2,0,0.3-0.1l18-9.4l18,9.4c0.2,0.1,0.5,0.1,0.7,0c0.2-0.1,0.3-0.4,0.3-0.6l-3.4-20l14.5-14.2
			C134.6,137.3,134.7,137,134.6,136.8z M110.2,140.7 M102.5,115.1"/>
		<path class="st2" d="M79.8,113.9"/>
		<path class="st2" d="M89.1,94.5"/>
		<path class="st2" d="M66.7,164.4"/>
		<path class="st2" d="M67.6,163.8"/>
		<path class="st2" d="M71.3,141.9"/>
		<path class="st2" d="M51,121.1"/>
	</g>
</g>
<g>
	<g>
		<path class="st2" d="M187.8,230.9c0-0.1-0.1-0.2-0.2-0.2l-7.2-1.2l-3.2-7.4c0-0.1-0.1-0.1-0.2-0.1c-0.1,0-0.2,0.1-0.2,0.1
			l-3.2,7.4l-7.2,1.2c-0.1,0-0.2,0.1-0.2,0.2c0,0.1,0,0.2,0.1,0.3l5.2,5.8l-1.2,8.2c0,0.1,0,0.2,0.1,0.3c0,0,0.1,0.1,0.1,0.1
			c0,0,0.1,0,0.1,0l6.4-3.8l6.4,3.8c0.1,0,0.2,0,0.2,0c0.1-0.1,0.1-0.2,0.1-0.3l-1.2-8.2l5.2-5.8C187.8,231.1,187.8,231,187.8,230.9
			z M179.1,232.5 M176.4,222"/>
		<path class="st2" d="M168.3,221.6"/>
		<path class="st2" d="M171.6,213.7"/>
		<path class="st2" d="M163.7,242.1"/>
		<path class="st2" d="M164,241.9"/>
		<path class="st2" d="M165.3,233"/>
		<path class="st2" d="M158.1,224.5"/>
	</g>
</g>
</svg>
